<?xml version="1.0" encoding="utf-8"?><svg width="120" height="35" viewBox="0 0 120 35" fill="none" xmlns="http://www.w3.org/2000/svg">
<path d="M22.0544 1.49585L10.6609 15.9021C9.18165 17.7683 9.16404 20.367 10.5904 22.2681L21.8607 34.9826C25.6996 34.9826 27.9361 30.6746 25.682 27.5876L17.6167 18.8148L25.594 8.71642C27.9361 5.78633 25.8229 1.49585 22.0544 1.49585Z" fill="#0086FF"/>
<path d="M8.37972 8.30015C9.92726 6.76788 9.93319 4.28875 8.39296 2.76285C6.85274 1.23696 4.34961 1.24213 2.80207 2.7744C1.25453 4.30668 1.2486 6.78581 2.78883 8.3117C4.32905 9.8376 6.83218 9.83243 8.37972 8.30015Z" fill="#0086FF"/>
<path d="M9.53384 15.7975V30.5875C9.53384 33.0292 7.54393 35 5.07856 35H1.62704V15.7975C1.62704 13.6348 3.40563 11.8733 5.58925 11.8733C7.77286 11.8733 9.53384 13.6348 9.53384 15.7975Z" fill="#0086FF"/>
<path d="M46.2502 21.1343L51.9206 28.006C52.1143 28.2327 51.9382 28.5816 51.6388 28.5816H48.1169C48.0112 28.5816 47.9056 28.5292 47.8351 28.442L42.5346 21.8842V28.2153C42.5346 28.4072 42.3761 28.5641 42.1824 28.5641H39.0655C38.8717 28.5641 38.7133 28.4072 38.7133 28.2153V8.31513C38.7133 8.12328 38.8717 7.96631 39.0655 7.96631H42.1824C42.3761 7.96631 42.5346 8.12328 42.5346 8.31513V20.332L47.5358 13.9835C47.6062 13.8962 47.7119 13.8439 47.8175 13.8439H51.4804C51.7797 13.8439 51.9382 14.1927 51.7621 14.4195L46.2502 21.1343Z" fill="#102F4F"/>
<path d="M63.6487 15.5881V14.2102C63.6487 14.0184 63.8072 13.8614 64.0009 13.8614H67.1354C67.3291 13.8614 67.4876 14.0184 67.4876 14.2102V28.2328C67.4876 28.4246 67.3291 28.5816 67.1354 28.5816H64.0185C63.8248 28.5816 63.6663 28.4246 63.6663 28.2328V26.855C62.5217 28.2851 60.9016 29.0002 58.8236 29.0002C56.8337 29.0002 55.1432 28.2502 53.7168 26.7677C52.308 25.2504 51.6036 23.4191 51.6036 21.239C51.6036 19.0763 52.308 17.245 53.7168 15.7276C55.1432 14.2102 56.8513 13.4603 58.8236 13.4603C60.884 13.4428 62.5041 14.1579 63.6487 15.5881ZM56.5872 24.2214C57.362 24.9888 58.3482 25.3725 59.528 25.3725C60.7255 25.3725 61.694 24.9888 62.4688 24.2214C63.2613 23.4365 63.6663 22.4424 63.6663 21.2215C63.6663 20.0006 63.2613 19.0065 62.4688 18.2565C61.694 17.4717 60.7079 17.0706 59.528 17.0706C58.3305 17.0706 57.362 17.4717 56.5872 18.2565C55.8123 19.0239 55.4249 20.0181 55.4249 21.2215C55.4249 22.4424 55.8123 23.4365 56.5872 24.2214Z" fill="#102F4F"/>
<path d="M81.3289 12.0825C80.695 12.0825 80.1491 11.8558 79.6736 11.3849C79.2157 10.9314 78.9692 10.3733 78.9692 9.7454C78.9692 9.11753 79.1981 8.55942 79.6736 8.08851C80.1315 7.6176 80.695 7.39087 81.3289 7.39087C81.9805 7.39087 82.544 7.6176 83.0018 8.08851C83.4597 8.55942 83.7062 9.11753 83.7062 9.7454C83.7062 10.3733 83.4773 10.9139 83.0018 11.3849C82.544 11.8558 81.9981 12.0825 81.3289 12.0825ZM82.9138 28.5817H79.7969C79.6032 28.5817 79.4447 28.4247 79.4447 28.2329V14.2103C79.4447 14.0184 79.6032 13.8615 79.7969 13.8615H82.9138C83.1075 13.8615 83.266 14.0184 83.266 14.2103V28.2329C83.266 28.4247 83.1075 28.5817 82.9138 28.5817Z" fill="#102F4F"/>
<path d="M93.7614 13.4428C95.7689 13.4428 97.4595 14.1927 98.8683 15.7101C100.295 17.2275 101.017 19.0588 101.017 21.2215C101.017 23.419 100.312 25.2678 98.8683 26.7503C97.4771 28.2502 95.7689 28.9827 93.7614 28.9827C91.6835 28.9827 90.081 28.2676 88.9539 26.8375V28.2153C88.9539 28.4072 88.7955 28.5641 88.6018 28.5641H85.4848C85.2911 28.5641 85.1326 28.4072 85.1326 28.2153V8.31513C85.1326 8.12328 85.2911 7.96631 85.4848 7.96631H88.6018C88.7955 7.96631 88.9539 8.12328 88.9539 8.31513V15.588C90.081 14.1579 91.6835 13.4428 93.7614 13.4428ZM90.1162 24.2213C90.891 24.9887 91.8772 25.3724 93.057 25.3724C94.2545 25.3724 95.223 24.9887 95.9979 24.2213C96.7903 23.4365 97.1953 22.4423 97.1953 21.2215C97.1953 20.0006 96.7903 19.0065 95.9979 18.2565C95.223 17.4717 94.2369 17.0705 93.057 17.0705C91.8596 17.0705 90.891 17.4717 90.1162 18.2565C89.3414 19.0239 88.9539 20.018 88.9539 21.2215C88.9539 22.4423 89.3414 23.4365 90.1162 24.2213Z" fill="#102F4F"/>
<path d="M115.21 28.5641H112.216C112.023 28.5641 111.864 28.4071 111.864 28.2153V20.2447C111.864 16.4949 114.928 13.4602 118.714 13.4602H119.648C119.841 13.4602 120 13.6172 120 13.809V16.7914C120 16.9833 119.841 17.1403 119.648 17.1403H118.714C116.989 17.1403 115.58 18.5355 115.58 20.2447V28.2153C115.562 28.4071 115.404 28.5641 115.21 28.5641Z" fill="#102F4F"/>
<path d="M106.282 28.5641H103.271C103.077 28.5641 102.919 28.4071 102.919 28.2153V20.2447C102.919 16.4949 105.983 13.4602 109.769 13.4602H110.702C110.896 13.4602 111.054 13.6172 111.054 13.809V16.7914C111.054 16.9833 110.896 17.1403 110.702 17.1403H109.769C108.043 17.1403 106.634 18.5355 106.634 20.2447V28.2153C106.634 28.4071 106.476 28.5641 106.282 28.5641Z" fill="#102F4F"/>
<path d="M77.173 28.5467H76.2397C72.4536 28.5467 69.3895 25.5119 69.3895 21.7621V8.31513C69.3895 8.12328 69.548 7.96631 69.7417 7.96631H72.7529C72.9466 7.96631 73.1051 8.12328 73.1051 8.31513V21.7621C73.1051 23.4714 74.5139 24.8666 76.2397 24.8666H77.173C77.3667 24.8666 77.5252 25.0236 77.5252 25.2154V28.1979C77.5252 28.3897 77.3667 28.5467 77.173 28.5467Z" fill="#102F4F"/>
</svg>
